# xmcd
#
# Track frame offsets:
#	150
#	6138
#	29922
#	44608
#	73701
#	92714
#	105779
#	127719
#	157088
#	182094
#	202913
#
# Disc length: 4171 seconds
#
# Revision: 1
# Processed by: cddbd v1.5.2PL0 Copyright (c) Steve Scherf et al.
# Submitted via: EZCDAudioConverter 2.1.7.1
#
DISCID=8c10490b
DTITLE=V/A - Real World Notes V11
DYEAR=1900
DGENRE=
TTITLE0=Dr. Hukwe Zawose and Charles Zawose - Mkatale Kulonga
TTITLE1=Jocelyn Pook - Upon This Rock [Work In Progress]
TTITLE2=Terem Quartet - Two-Step Nadya
TTITLE3=Remmy Ongala and Orchestre Super Matimila - Kipenda Roho
TTITLE4=Ayub Ogada, Spiro and Wix featuring JC001 - Hamliton Mattress Theme
TTITLE5=Iarla Ó Lionáird and James McNally - Samradh Samradh
TTITLE6=Assitan Mama Keita - Baro
TTITLE7=Rizwan-Muazzam Qawwali and Temple Of Sound - The Jewelled Heart
TTITLE8=Nusrath Fateh Ali Khan and Michael Brook - My Heart, My Life
TTITLE9=Totó La Momposina - María De La Paz [Work In Progress]
TTITLE10=Various Artist - Ecd Track11
EXTD=
EXTT0=
EXTT1=
EXTT2=
EXTT3=
EXTT4=
EXTT5=
EXTT6=
EXTT7=
EXTT8=
EXTT9=
EXTT10=
PLAYORDER=
